<svg width="24" height="24" viewBox="0 0 24 24" fill="none" xmlns="http://www.w3.org/2000/svg"
  data-id="IcProductDuotoneCarsFill">
  <path fill-rule="evenodd" clip-rule="evenodd"
    d="M2.25 19.125V20.25C2.25 21.2855 3.08947 22.125 4.125 22.125C5.16053 22.125 6 21.2855 6 20.25V19.125H18V20.25C18 21.2855 18.8395 22.125 19.875 22.125C20.9105 22.125 21.75 21.2855 21.75 20.25V19.125C22.6693 18.6654 23.25 17.7258 23.25 16.6979V13.875C23.25 12.6324 22.2426 11.625 21 11.625L21.9388 10.6862C22.2739 10.3511 22.357 9.83904 22.145 9.41509C21.9142 8.95345 21.3937 8.71406 20.893 8.83924L20.25 9L19.9927 6.94184C19.7112 4.68991 17.7969 3 15.5275 3H8.47252C6.20307 3 4.28876 4.68991 4.00727 6.94184L3.75 9L3.10698 8.83924C2.60626 8.71406 2.08577 8.95345 1.85495 9.41509C1.64298 9.83904 1.72607 10.3511 2.06123 10.6862L3 11.625C1.75736 11.625 0.75 12.6324 0.75 13.875V16.6979C0.75 17.7258 1.3307 18.6654 2.25 19.125ZM17.9121 11.625H6.08795C5.64094 11.625 5.29317 11.2365 5.34254 10.7922L5.70348 7.54371C5.87229 6.02441 7.15648 4.875 8.68513 4.875H15.3149C16.8435 4.875 18.1277 6.02441 18.2965 7.5437L18.6575 10.7922C18.7068 11.2365 18.3591 11.625 17.9121 11.625ZM7.125 16.875H4.125C3.50368 16.875 3 16.3713 3 15.75C3 15.1287 3.50368 14.625 4.125 14.625H7.125C7.74632 14.625 8.25 15.1287 8.25 15.75C8.25 16.3713 7.74632 16.875 7.125 16.875ZM16.875 16.875H19.875C20.4963 16.875 21 16.3713 21 15.75C21 15.1287 20.4963 14.625 19.875 14.625H16.875C16.2537 14.625 15.75 15.1287 15.75 15.75C15.75 16.3713 16.2537 16.875 16.875 16.875Z"
    fill="#087E8B"></path>
</svg>