<svg width="24" height="24" viewBox="0 0 24 24" fill="none" xmlns="http://www.w3.org/2000/svg"
  data-id="IcProductDuotoneFinanceFill">
  <path
    d="M20.9292 5.57451C18.9319 2.80371 15.6766 1 12 1C5.92487 1 1 5.92487 1 12C1 13.6115 1.34652 15.142 1.9691 16.5211L3.71214 15.5148C3.25362 14.435 2.99997 13.2471 2.99997 12C2.99997 7.02944 7.0294 3 12 3C14.9358 3 17.5434 4.40574 19.1862 6.58085L20.9292 5.57451Z"
    fill="#FFFFFF"></path>
  <path
    d="M4.41247 16.8425L2.67875 17.8435C4.62471 20.941 8.0719 23 12 23C15.7558 23 19.0719 21.1177 21.0565 18.2451L19.3148 17.2445C17.6814 19.5187 15.0137 21 12 21C8.81213 21 6.0114 19.3426 4.41247 16.8425Z"
    fill="#FFFFFF"></path>
  <path
    d="M23 12C23 13.7827 22.5759 15.4664 21.8231 16.9556L20.0855 15.9574C20.6711 14.763 21 13.4199 21 12C21 10.5032 20.6346 9.09172 19.9881 7.84993L21.7219 6.84893C22.5378 8.38564 23 10.1388 23 12Z"
    fill="#FFFFFF"></path>
  <path fill-rule="evenodd" clip-rule="evenodd"
    d="M12 19.5C16.1421 19.5 19.5 16.1421 19.5 12C19.5 7.85786 16.1421 4.5 12 4.5C7.85786 4.5 4.5 7.85786 4.5 12C4.5 16.1421 7.85786 19.5 12 19.5ZM9.39998 13.5478H8.34998V9.25H9.84398C10.282 9.25 10.492 9.28005 10.678 9.35219C11.164 9.53852 11.47 9.97732 11.47 10.6025C11.47 11.0593 11.254 11.5582 10.828 11.7746V11.7866C10.828 11.7866 10.888 11.8648 10.99 12.0451L11.824 13.5478H10.654L9.89198 12.0992H9.39998V13.5478ZM9.39998 10.1516V11.1975H9.85598C10.192 11.1975 10.402 11.0112 10.402 10.6686C10.402 10.344 10.282 10.1516 9.75398 10.1516H9.39998ZM13.3754 14.75H12.3374V10.4522H13.2734V10.6085C13.2734 10.7107 13.2614 10.8068 13.2614 10.8068H13.2734C13.2734 10.8068 13.5554 10.3801 14.2094 10.3801C15.0494 10.3801 15.6014 11.0413 15.6014 12.003C15.6014 12.9828 14.9834 13.6199 14.1614 13.6199C13.6574 13.6199 13.3754 13.3254 13.3754 13.3254H13.3634C13.3634 13.3254 13.3754 13.4336 13.3754 13.5899V14.75ZM13.9514 11.2577C13.6394 11.2577 13.3454 11.4861 13.3454 12.021C13.3454 12.3937 13.5434 12.7604 13.9514 12.7604C14.2754 12.7604 14.5574 12.4959 14.5574 12.021C14.5574 11.5582 14.3114 11.2577 13.9514 11.2577Z"
    fill="#FFFFFF"></path>
</svg>