<svg width="24" height="24" viewBox="0 0 24 24" fill="none" xmlns="http://www.w3.org/2000/svg"
  data-id="IcProductHolidayStays">
  <path
    d="M14.17 15.7351V15.4609C14.1687 15.3602 14.1334 15.2628 14.07 15.1845L13.9222 15.0073C13.8929 15.3679 13.8705 15.7461 13.8551 16.142C13.9259 16.1246 13.991 16.0891 14.044 16.039C14.1246 15.9584 14.1699 15.8491 14.17 15.7351Z"
    fill="#235D9F"></path>
  <path
    d="M9.99999 10.3051C9.95913 10.2567 9.90828 10.2178 9.85094 10.1909C9.79359 10.164 9.73111 10.1499 9.66779 10.1494H5.77109C5.70803 10.1496 5.64578 10.1636 5.58875 10.1905C5.53172 10.2174 5.48131 10.2566 5.44109 10.3051L1.37109 15.1841C1.30668 15.2618 1.27132 15.3596 1.27109 15.4605V15.7347C1.27109 15.7912 1.28221 15.8471 1.30382 15.8993C1.32543 15.9514 1.3571 15.9988 1.39703 16.0388C1.43696 16.0787 1.48436 16.1104 1.53653 16.132C1.5887 16.1536 1.64462 16.1647 1.70109 16.1647H2.98999L2.99229 20.8811C2.99229 20.9952 3.03759 21.1045 3.11823 21.1852C3.19887 21.2658 3.30824 21.3111 3.42229 21.3111H5.14149C5.25553 21.3111 5.3649 21.2658 5.44554 21.1852C5.52618 21.1045 5.57149 20.9952 5.57149 20.8811V18.302C5.57149 18.188 5.61679 18.0786 5.69743 17.998C5.77807 17.9173 5.88744 17.872 6.00149 17.872H7.71999C7.77646 17.872 7.83237 17.8831 7.88454 17.9047C7.93671 17.9264 7.98411 17.958 8.02404 17.998C8.06397 18.0379 8.09565 18.0853 8.11726 18.1375C8.13887 18.1896 8.14999 18.2455 8.14999 18.302V20.892C8.14999 21.0061 8.19529 21.1154 8.27593 21.1961C8.35657 21.2767 8.46594 21.322 8.57999 21.322H12.021C12.0773 21.322 12.1331 21.3109 12.1851 21.2892C12.2371 21.2676 12.2844 21.2358 12.3241 21.1959C12.3638 21.1559 12.3952 21.1085 12.4165 21.0563C12.4378 21.0042 12.4486 20.9484 12.4483 20.892V16.1645H13.74C13.854 16.1645 13.9634 16.1192 14.044 16.0386C14.1247 15.9579 14.17 15.8486 14.17 15.7345V15.4603C14.1686 15.3596 14.1334 15.2622 14.07 15.1839L9.99999 10.3051ZM11.5892 18.3136C11.5892 18.4277 11.5439 18.537 11.4632 18.6177C11.3826 18.6983 11.2732 18.7436 11.1592 18.7436H9.43999C9.32594 18.7436 9.21657 18.6983 9.13593 18.6177C9.05529 18.537 9.00999 18.4277 9.00999 18.3136V16.5943C9.00999 16.4803 9.05529 16.3709 9.13593 16.2903C9.21657 16.2096 9.32594 16.1643 9.43999 16.1643H11.1593C11.2733 16.1643 11.3827 16.2096 11.4633 16.2903C11.544 16.3709 11.5893 16.4803 11.5893 16.5943L11.5892 18.3136Z"
    fill="#235D9F"></path>
  <path
    d="M3.33519 10.1426H4.22219C4.27748 10.1426 4.33222 10.1535 4.3833 10.1746C4.43438 10.1958 4.48079 10.2268 4.51988 10.2659C4.55898 10.305 4.58999 10.3514 4.61115 10.4025C4.6323 10.4535 4.64319 10.5083 4.64319 10.5636V14.3667H2.91409V10.5637C2.91408 10.5084 2.92496 10.4536 2.94612 10.4025C2.96728 10.3514 2.9983 10.305 3.0374 10.2659C3.07651 10.2268 3.12293 10.1958 3.17403 10.1746C3.22513 10.1534 3.27989 10.1426 3.33519 10.1426Z"
    fill="#235D9F"></path>
  <path
    d="M13.0464 3.03568C14.0452 3.55476 16.1777 5.05219 16.1621 8.3733C17.7999 5.49074 20.3911 5.25197 21.5151 5.29822C21.5579 5.30026 21.599 5.3156 21.6327 5.34211C21.6664 5.36861 21.691 5.40495 21.7031 5.44608C21.7152 5.48721 21.7141 5.53108 21.7001 5.57159C21.6861 5.6121 21.6598 5.64724 21.6249 5.67212L18.6961 7.7917C20.5964 7.36036 22.124 8.03661 22.85 8.46495C22.8868 8.48698 22.9158 8.51992 22.9329 8.55919C22.9501 8.59846 22.9546 8.6421 22.9458 8.68405C22.9371 8.726 22.9154 8.76417 22.884 8.79326C22.8525 8.82235 22.8127 8.84091 22.7702 8.84635L18.5737 9.41461C20.8917 9.79868 22.0913 11.3666 22.5674 12.1786C22.5888 12.2157 22.5981 12.2585 22.594 12.3012C22.59 12.3439 22.5727 12.3842 22.5446 12.4166C22.5166 12.449 22.4791 12.4718 22.4375 12.4819C22.3959 12.492 22.3521 12.4889 22.3123 12.4731L16.3167 10.1279C14.9544 14.2006 16.4019 21.3737 16.4019 21.3737L14.0811 21.3768C13.8969 19.8319 13.816 18.2765 13.8389 16.7208C14.0847 16.6984 14.3131 16.5847 14.4791 16.4021C14.6451 16.2196 14.7367 15.9815 14.7358 15.7347V15.4605C14.7338 15.2302 14.6542 15.0074 14.5098 14.828L13.9982 14.2147C14.0962 12.6892 14.4603 11.1947 15.0721 9.79821L8.7879 8.86472C8.74546 8.85873 8.70594 8.83967 8.67483 8.81018C8.64373 8.78069 8.62259 8.74224 8.61435 8.70018C8.60611 8.65812 8.61118 8.61453 8.62886 8.57549C8.64654 8.53644 8.67595 8.50388 8.713 8.48232C9.50835 8.02683 11.255 7.29044 13.3793 8.00826L10.1437 5.52339C10.1095 5.49753 10.0843 5.46166 10.0714 5.42077C10.0586 5.37989 10.0588 5.33601 10.072 5.29524C10.0853 5.25448 10.1109 5.21886 10.1453 5.19333C10.1797 5.1678 10.2213 5.15363 10.2641 5.15279C11.1291 5.14176 12.8566 5.32396 14.3157 6.74021L12.7652 3.30548C12.7473 3.26654 12.7421 3.223 12.7501 3.18092C12.7581 3.13883 12.779 3.10028 12.8099 3.07062C12.8408 3.04096 12.8802 3.02166 12.9226 3.0154C12.965 3.00914 13.0082 3.01623 13.0464 3.03568Z"
    fill="#235D9F"></path>
  <path
    d="M5.27809 7.62338C5.67012 7.62338 6.05334 7.50713 6.3793 7.28933C6.70525 7.07153 6.9593 6.76196 7.10932 6.39977C7.25934 6.03759 7.29859 5.63905 7.2221 5.25456C7.14561 4.87006 6.95682 4.51689 6.67961 4.23969C6.4024 3.96249 6.04921 3.77372 5.66472 3.69725C5.28022 3.62079 4.88168 3.66005 4.5195 3.81009C4.15732 3.96012 3.84777 4.21419 3.62999 4.54016C3.4122 4.86613 3.29597 5.24935 3.29599 5.64138C3.29599 5.90167 3.34726 6.15941 3.44687 6.39988C3.54648 6.64036 3.69248 6.85885 3.87654 7.0429C4.0606 7.22695 4.2791 7.37294 4.51958 7.47254C4.76006 7.57214 5.0178 7.62339 5.27809 7.62338Z"
    fill="#235D9F"></path>
  <path
    d="M5.1616 2.05277L4.6636 2.91537C4.65237 2.93483 4.64645 2.95691 4.64645 2.97938C4.64646 3.00185 4.65237 3.02393 4.66361 3.04339C4.67485 3.06285 4.69102 3.07901 4.71049 3.09024C4.72995 3.10147 4.75203 3.10738 4.7745 3.10737H5.7705C5.79297 3.10736 5.81503 3.10144 5.83448 3.0902C5.85394 3.07896 5.87009 3.0628 5.88132 3.04335C5.89254 3.02389 5.89845 3.00182 5.89845 2.97935C5.89845 2.95689 5.89253 2.93482 5.8813 2.91537L5.3833 2.05277C5.37207 2.03331 5.35591 2.01715 5.33645 2.00592C5.31699 1.99468 5.29492 1.98877 5.27245 1.98877C5.24998 1.98877 5.22791 1.99468 5.20845 2.00592C5.189 2.01715 5.17284 2.03331 5.1616 2.05277Z"
    fill="#235D9F"></path>
  <path
    d="M5.3833 9.23478L5.8813 8.37218C5.89253 8.35272 5.89845 8.33065 5.89845 8.30819C5.89845 8.28573 5.89254 8.26366 5.88132 8.2442C5.87009 8.22474 5.85394 8.20858 5.83448 8.19734C5.81503 8.18611 5.79297 8.18018 5.7705 8.18018H4.7745C4.75203 8.18017 4.72995 8.18608 4.71049 8.19731C4.69102 8.20854 4.67485 8.2247 4.66361 8.24415C4.65237 8.26361 4.64646 8.28569 4.64645 8.30816C4.64645 8.33064 4.65237 8.35271 4.6636 8.37218L5.1616 9.23478C5.17284 9.25423 5.189 9.27039 5.20845 9.28163C5.22791 9.29286 5.24998 9.29877 5.27245 9.29877C5.29492 9.29877 5.31699 9.29286 5.33645 9.28163C5.35591 9.27039 5.37207 9.25423 5.3833 9.23478Z"
    fill="#235D9F"></path>
  <path
    d="M2.65489 3.18315L2.91269 4.14515C2.91848 4.16686 2.92989 4.18667 2.94577 4.20257C2.96165 4.21847 2.98144 4.22991 3.00315 4.23572C3.02485 4.24154 3.04771 4.24154 3.06942 4.23572C3.09112 4.22989 3.11091 4.21845 3.12679 4.20255L3.83109 3.49825C3.84699 3.48237 3.85843 3.46258 3.86426 3.44088C3.87008 3.41917 3.87008 3.39631 3.86426 3.37461C3.85845 3.3529 3.84701 3.33311 3.83111 3.31723C3.81521 3.30135 3.7954 3.28994 3.77369 3.28415L2.81169 3.02635C2.78998 3.02052 2.76712 3.02051 2.74541 3.02633C2.72369 3.03214 2.7039 3.04357 2.688 3.05946C2.67211 3.07536 2.66068 3.09515 2.65487 3.11687C2.64905 3.13858 2.64906 3.16144 2.65489 3.18315Z"
    fill="#235D9F"></path>
  <path
    d="M7.89001 8.10489L7.63221 7.14279C7.62642 7.12108 7.61501 7.10127 7.59913 7.08537C7.58325 7.06947 7.56346 7.05803 7.54175 7.05221C7.52004 7.04639 7.49718 7.0464 7.47548 7.05222C7.45377 7.05805 7.43399 7.06949 7.41811 7.08539L6.71381 7.79019C6.69793 7.80608 6.68652 7.82587 6.68071 7.84757C6.67491 7.86927 6.67491 7.89211 6.68073 7.91381C6.68654 7.9355 6.69797 7.95529 6.71385 7.97117C6.72973 7.98705 6.74951 7.99848 6.77121 8.00429L7.73331 8.26209C7.75505 8.26793 7.77795 8.26793 7.79969 8.26209C7.82143 8.25625 7.84125 8.24478 7.85715 8.22883C7.87304 8.21289 7.88445 8.19304 7.89022 8.17128C7.89599 8.14952 7.89591 8.12662 7.89001 8.10489Z"
    fill="#235D9F"></path>
  <path
    d="M1.68149 5.75492L2.54409 6.25291C2.56355 6.26415 2.58561 6.27006 2.60808 6.27006C2.63054 6.27007 2.65261 6.26416 2.67207 6.25293C2.69153 6.2417 2.70768 6.22555 2.71892 6.2061C2.73016 6.18665 2.73608 6.16458 2.73609 6.14212V5.14611C2.7361 5.12364 2.73019 5.10156 2.71896 5.0821C2.70773 5.06263 2.69157 5.04647 2.67211 5.03523C2.65265 5.02399 2.63058 5.01807 2.6081 5.01807C2.58563 5.01806 2.56355 5.02398 2.54409 5.03521L1.68149 5.53322C1.66203 5.54445 1.64587 5.56061 1.63464 5.58007C1.62341 5.59952 1.61749 5.6216 1.61749 5.64406C1.61749 5.66653 1.62341 5.68861 1.63464 5.70806C1.64587 5.72752 1.66203 5.74368 1.68149 5.75492Z"
    fill="#235D9F"></path>
  <path
    d="M8.8634 5.53323L8.0008 5.03523C7.98134 5.02399 7.95927 5.01807 7.9368 5.01807C7.91433 5.01807 7.89226 5.02399 7.8728 5.03523C7.85335 5.04647 7.8372 5.06264 7.82598 5.08211C7.81476 5.10158 7.80887 5.12366 7.8089 5.14613V6.14213C7.80889 6.16459 7.81479 6.18666 7.82602 6.20612C7.83724 6.22557 7.85339 6.24173 7.87285 6.25296C7.8923 6.26419 7.91436 6.2701 7.93683 6.27009C7.95929 6.27009 7.98135 6.26417 8.0008 6.25293L8.8634 5.75493C8.88286 5.7437 8.89901 5.72754 8.91025 5.70808C8.92148 5.68862 8.9274 5.66655 8.9274 5.64408C8.9274 5.62161 8.92148 5.59954 8.91025 5.58008C8.89901 5.56062 8.88286 5.54447 8.8634 5.53323Z"
    fill="#235D9F"></path>
  <path
    d="M2.8117 8.26158L3.7737 8.00378C3.79531 7.99794 3.81502 7.98653 3.83084 7.97069C3.84667 7.95484 3.85805 7.93512 3.86386 7.9135C3.86967 7.89187 3.86971 7.8691 3.86396 7.84746C3.85821 7.82582 3.84688 7.80607 3.8311 7.79018L3.1268 7.08588C3.11092 7.06998 3.09113 7.05853 3.06943 7.05271C3.04772 7.04689 3.02486 7.04688 3.00316 7.0527C2.98145 7.05852 2.96166 7.06996 2.94578 7.08586C2.9299 7.10176 2.91849 7.12157 2.9127 7.14328L2.6549 8.10538C2.6492 8.12705 2.6493 8.14983 2.65517 8.17146C2.66104 8.19308 2.67249 8.21278 2.68836 8.22859C2.70423 8.2444 2.72398 8.25577 2.74562 8.26156C2.76727 8.26735 2.79005 8.26736 2.8117 8.26158Z"
    fill="#235D9F"></path>
  <path
    d="M7.73331 3.02632L6.77121 3.28412C6.74951 3.28993 6.72973 3.30136 6.71385 3.31724C6.69797 3.33313 6.68654 3.35291 6.68073 3.3746C6.67491 3.3963 6.67491 3.41914 6.68071 3.44084C6.68652 3.46254 6.69793 3.48233 6.71381 3.49822L7.41811 4.20252C7.43399 4.21842 7.45377 4.22986 7.47548 4.23569C7.49718 4.24151 7.52004 4.24152 7.54175 4.2357C7.56346 4.22988 7.58325 4.21844 7.59913 4.20254C7.61501 4.18664 7.62642 4.16683 7.63221 4.14512L7.89001 3.18312C7.89583 3.16142 7.89583 3.13857 7.89002 3.11687C7.88421 3.09517 7.87279 3.07538 7.85691 3.05949C7.84103 3.0436 7.82125 3.03217 7.79956 3.02635C7.77786 3.02052 7.75501 3.02051 7.73331 3.02632Z"
    fill="#235D9F"></path>
</svg>