<svg width="24" height="24" viewBox="0 0 24 24" fill="none" xmlns="http://www.w3.org/2000/svg"
  data-id="IcProductLastMinuteHotelFill">
  <path fill-rule="evenodd" clip-rule="evenodd"
    d="M2 13.8096C3.16789 12.6888 4.75351 12 6.5 12C7.77445 12 8.96324 12.3668 9.96655 13.0005C9.97766 13.0002 9.98881 13 10 13H12C12.5523 13 13 13.4477 13 14V15C13 15.3884 12.7786 15.7251 12.4551 15.8907C12.8055 16.6893 13 17.572 13 18.5C13 19.7886 12.625 20.9897 11.9782 22H14H15H21C21.5523 22 22 21.5523 22 21V12C22 10.8954 21.1046 10 20 10H15V4C15 3.44772 14.5523 3 14 3H12.5C12.2061 1.82459 11.15 1 9.93845 1H7.06155C5.84996 1 4.79385 1.82459 4.5 3H3C2.44772 3 2 3.44771 2 4V13.8096ZM6.5 12H7C7.55228 12 8 11.5523 8 11V10C8 9.44772 7.55228 9 7 9H5C4.44772 9 4 9.44771 4 10V11C4 11.5523 4.44772 12 5 12H6.5ZM4 6C4 5.44772 4.44772 5 5 5H7C7.55228 5 8 5.44772 8 6V7C8 7.55228 7.55228 8 7 8H5C4.44772 8 4 7.55228 4 7V6ZM10 5C9.44772 5 9 5.44772 9 6V7C9 7.55228 9.44772 8 10 8H12C12.5523 8 13 7.55228 13 7V6C13 5.44772 12.5523 5 12 5H10ZM9 10C9 9.44772 9.44772 9 10 9H12C12.5523 9 13 9.44771 13 10V11C13 11.5523 12.5523 12 12 12H10C9.44772 12 9 11.5523 9 11V10ZM16 14V13C16 12.4477 16.4477 12 17 12H19C19.5523 12 20 12.4477 20 13V14C20 14.5523 19.5523 15 19 15H17C16.4477 15 16 14.5523 16 14ZM17 16C16.4477 16 16 16.4477 16 17V18C16 18.5523 16.4477 19 17 19H19C19.5523 19 20 18.5523 20 18V17C20 16.4477 19.5523 16 19 16H17ZM16 7V3C16 2.44772 16.4477 2 17 2C17.5523 2 18 2.44772 18 3V4H20V3C20 2.44772 20.4477 2 21 2C21.5523 2 22 2.44772 22 3V7C22 7.55228 21.5523 8 21 8C20.4477 8 20 7.55228 20 7V6H18V7C18 7.55228 17.5523 8 17 8C16.4477 8 16 7.55228 16 7Z"
    fill="#235D9F"></path>
  <path
    d="M1.5 18.375C1.5 21.0674 3.68261 23.25 6.375 23.25C9.06739 23.25 11.25 21.0674 11.25 18.375C11.25 15.6826 9.06739 13.5 6.375 13.5C3.68261 13.5 1.5 15.6826 1.5 18.375ZM1.5 18.375H0.75M2.25 12.75L0.75 14.25"
    stroke="#235D9F" stroke-width="1.5" stroke-linecap="round" stroke-linejoin="round"></path>
  <path d="M6.25 16.5V18.75H7.75" stroke="#235D9F" stroke-width="1.5" stroke-linecap="round" stroke-linejoin="round">
  </path>
</svg>