<svg width="24" height="24" viewBox="0 0 24 24" fill="none" xmlns="http://www.w3.org/2000/svg"
  data-id="IcXperienceDuotoneOnlineFill">
  <path d="M8 6V5.5C8 4.11929 9.11929 3 10.5 3H18.5C19.8807 3 21 4.11929 21 5.5V9.5C21 10.3284 20.3284 11 19.5 11H19V14"
    stroke="#FF6D6A" stroke-width="2" stroke-linecap="round" stroke-linejoin="round"></path>
  <path fill-rule="evenodd" clip-rule="evenodd"
    d="M2 11.5C2 9.567 3.567 8 5.5 8H13.5C15.433 8 17 9.567 17 11.5V15.5C17 17.433 15.433 19 13.5 19H12.3333L8.6 21.8C8.29698 22.0273 7.89157 22.0638 7.55279 21.8944C7.214 21.725 7 21.3788 7 21V19H5.5C3.567 19 2 17.433 2 15.5V11.5ZM7.80029 11.616C7.80029 11.3422 8.09674 11.171 8.33386 11.308L11.5352 13.1567C11.7723 13.2936 11.7723 13.6358 11.5352 13.7727L8.33386 15.6215C8.09673 15.7584 7.80029 15.5873 7.80029 15.3134V11.616Z"
    fill="#FF6D6A"></path>
</svg>