<svg width="24" height="24" viewBox="0 0 24 24" fill="none" xmlns="http://www.w3.org/2000/svg"
  data-id="IcProductDuotoneCarQuickrideFill">
  <path d="M1.5 15L3.5 15M1.5 11L4 11M1.5 7H6" stroke="#087E8B" stroke-width="2" stroke-linecap="round"></path>
  <path fill-rule="evenodd" clip-rule="evenodd"
    d="M6 17V18C6 18.8284 6.67157 19.5 7.5 19.5C8.32843 19.5 9 18.8284 9 18V17H19V18C19 18.8284 19.6716 19.5 20.5 19.5C21.3284 19.5 22 18.8284 22 18V17C22.6129 16.6936 23 16.0672 23 15.382V12C23 11.4477 22.5523 11 22 11L22.6412 10.3588C22.8555 10.1445 22.9086 9.81718 22.7731 9.54614C22.6164 9.23277 22.2531 9.0823 21.9207 9.19309L21 9.5L20.6961 8.13228C20.2894 6.30213 18.6661 5 16.7913 5H11.2087C9.33389 5 7.71064 6.30213 7.30394 8.13228L7 9.5L6.07927 9.19309C5.74689 9.0823 5.38362 9.23277 5.22693 9.54614C5.09141 9.81718 5.14453 10.1445 5.35881 10.3588L6 11C5.44772 11 5 11.4477 5 12V15.382C5 16.0672 5.38713 16.6936 6 17ZM18.8767 11H9.12331C8.80343 11 8.56582 10.7038 8.63521 10.3915L8.97795 8.84921C9.28298 7.4766 10.5004 6.5 11.9065 6.5H16.0935C17.4996 6.5 18.717 7.4766 19.022 8.84921L19.3648 10.3915C19.4342 10.7038 19.1966 11 18.8767 11ZM10.5 15H8.5C7.94772 15 7.5 14.5523 7.5 14C7.5 13.4477 7.94772 13 8.5 13H10.5C11.0523 13 11.5 13.4477 11.5 14C11.5 14.5523 11.0523 15 10.5 15ZM17.5 15H19.5C20.0523 15 20.5 14.5523 20.5 14C20.5 13.4477 20.0523 13 19.5 13H17.5C16.9477 13 16.5 13.4477 16.5 14C16.5 14.5523 16.9477 15 17.5 15Z"
    fill="#087E8B"></path>
</svg>